<svg style="position: absolute; width: 0; height: 0; overflow: hidden;" aria-hidden="true" version="1.1" xmlns="http://www.w3.org/2000/svg" xmlns:xlink="http://www.w3.org/1999/xlink">
    <style>
        .default-palette, .palette0 {color: currentColor;
            --color0: #fff;
        }
    </style>
    <defs>
        <symbol id="CompanyLogo" viewBox="0 0 112 48" fill="none">
            <g fill="var(--color0, #fff)" clip-path="url(#clip0_8208_3134)">
                <path d="M99.0365 25.6312c-1.1359-0.0379-2.2681-0.0758-3.405-0.0378-5.2785 0.2221-11.2564 1.1577-15.01 5.2687-1.791 1.9621-2.7629 4.3925-2.6256 7.0611 0.0898 1.5092 0.4892 2.984 1.1736 4.3326-63e-4 0.0114-0.0127 0.0227-0.019 0.0339-34e-4 61e-4-68e-4 0.0122-0.0103 0.0181-0.2013 0.3435-0.6269 0.8214-1.0562 1.3033-0.543 0.6098-1.0919 1.2261-1.1999 1.5851-0.0273 0.0911-71e-4 0.2023 0.0189 0.2915 0.0888 0.3001 0.3974 0.5347 0.6395 0.7187l0.0182 0.0138c0.531-0.5222 1.0133-1.0894 1.4955-1.6566l0.0385-0.0452 0.9758-1.1918c2.5917 1.4695 5.1367 1.9334 8.0439 1.1267 3.5598-0.9875 6.3123-3.5201 8.0856-6.7019 1.9751-3.5422 2.8845-8.0906 3.0166-12.1142zM93.8802 29.1814c0.0136 35e-4 0.027 69e-4 0.0403 0.0103 0.1264 0.0318 0.2409 0.0607 0.3481 0.1459 0.1145 0.091 0.2042 0.2361 0.1964 0.3848-91e-4 0.1777-0.0741 0.267-0.1964 0.3913-0.3808 0.3853-0.8414 0.724-1.2934 1.0563-0.1998 0.1469-0.3979 0.2926-0.5867 0.4405-1.1957 0.9257-2.3738 1.8727-3.5351 2.8407 0.7332-0.1776 3.191-0.5985 3.8304-0.3799 0.1978 0.0683 0.2635 0.1652 0.3442 0.35-0.0176 0.2732-0.1009 0.4391-0.3611 0.5536-0.1183 0.0523-0.9998 0.138-1.9884 0.2342-1.1261 0.1095-2.3916 0.2325-2.8256 0.335-0.2752 0.0651-0.4924 0.1568-0.7234 0.3188-0.3495 0.2452-0.6655 0.5512-0.9774 0.8533-0.116 0.1123-0.2314 0.2241-0.3477 0.332-1.0246 0.9511-2.0297 1.9093-3.012 2.9047 0.6978 0.1541 1.7239 0.1047 2.7174 0.0569 1.1189-0.0538 2.1966-0.1057 2.7165 0.1376 0.0852 0.1093 0.11 0.2251 0.0983 0.3643-98e-4 0.1119-0.0736 0.1821-0.1529 0.2543-0.4294 0.391-4.6651 0.2661-5.3221 0.1913-0.0266-42e-4-0.0541-89e-4-0.0822-0.0137-0.1463-0.0251-0.3087-0.053-0.4473-0.024-1.0637 0.2192-2.5209 1.8664-3.1539 2.6919l0.0387-0.0903c0.2954-0.6892 0.5921-1.3814 1.0028-2.0116 0.6955-1.0675 2.6699-3.0439 3.6379-3.9781 0.1538-0.1483 0.3332-0.2993 0.5179-0.4548 0.4083-0.3437 0.8428-0.7094 1.0837-1.1156 0.2427-0.4093 0.3872-1.2653 0.5389-2.1637 0.1906-1.1289 0.3925-2.3249 0.8149-2.7862 0.1229-0.1341 0.16-0.142 0.3285-0.1594 0.1666 0.0731 0.2732 0.1441 0.3676 0.3055 0.0689 0.1179 0.078 0.2355 0.0598 0.3667-0.0435 0.3181-0.1552 0.6527-0.2645 0.9802-0.0592 0.1771-0.1176 0.3521-0.1642 0.5214-0.1584 0.5754-0.2784 1.16-0.3984 1.7442-0.0135 0.0658-0.0271 0.1322-0.0407 0.198 0.5586-0.538 1.1863-1.0163 1.8087-1.4906 0.2017-0.1536 0.4028-0.3069 0.6009-0.4617 0.2998-0.2342 0.6008-0.468 0.9022-0.702 1.3122-1.0191 2.6314-2.0436 3.8793-3.1321z" />
                <path d="M16.4246 0.4031c-0.0206 22e-4-0.0408 67e-4-0.0612 0.01-2.2531 0.2703-4.2925 1.3001-5.713 3.0964-1.7392 2.1992-2.215 5.0089-1.8844 7.745 0.2865 2.3706 1.3706 4.6093 3.2847 6.083 1.9116 1.4719 4.1351 1.888 6.4958 1.7043 2.296-0.3154 4.3673-1.3548 5.7936-3.218 1.6549-2.1615 2.1101-5.0164 1.749-7.6669-0.3279-2.4071-1.526-4.6494-3.4841-6.1169-1.7744-1.3298-3.9822-1.8695-6.1804-1.6369zM17.1608 3.4732c1.2332-0.0153 2.3497 0.2161 3.3199 1.0188 1.1869 0.982 1.7242 2.5319 1.8607 4.0241 0.1759 1.9218-0.0338 4.1925-1.3254 5.7291-0.8894 1.0579-2.0298 1.4806-3.3736 1.5993-0.025 25e-4-0.0498 62e-4-0.0749 75e-4-1.1395 0.0584-2.3269-0.2787-3.209-1.0128-1.2112-1.0079-1.7235-2.5409-1.8519-4.0683-0.1609-1.9127-0.0115-4.2442 1.2955-5.7739 0.8854-1.0361 2.0349-1.4275 3.3587-1.5238z" />
                <path d="M43.8418 5.226c-78e-4 9e-4-0.0157 17e-4-0.0235 26e-4-1.5399 0.1485-2.854 0.7593-3.8568 1.9607-1.2533 1.5014-1.6804 3.6086-1.4939 5.5199 0.157 1.6097 0.818 3.199 2.1002 4.2333 1.2931 1.043 2.9495 1.2888 4.5635 1.093 1.2714-0.1542 2.1106-0.7212 2.99-1.6173 13e-4 0.0869 3e-3 0.1755 47e-4 0.2654 0.0234 1.2143 0.0516 2.6827-0.8491 3.5848-0.6055 0.6065-1.4734 0.7357-2.2931 0.7186-0.8865-0.0184-1.7794-0.2229-2.4098-0.8954-0.1786-0.1906-0.2955-0.4268-0.4108-0.6599-0.0203-0.041-0.0406-0.0819-0.0611-0.1224-0.3213-9e-4-0.6552-0.0119-0.9939-0.0232-0.8205-0.0271-1.6688-0.0552-2.4344 0.0584-0.0665 0.1762-0.0172 0.3666 0.0298 0.5477 94e-4 0.036 0.0186 0.0717 0.0268 0.1068 0.4578 1.3695 1.4327 2.4247 2.7174 3.0763 1.8247 0.9254 4.421 1.0064 6.3455 0.3621 1.4161-0.4741 2.6374-1.4333 3.3048-2.7844 0.2566-0.5299 0.4215-1.0994 0.4878-1.6843 0.1324-1.0717 0.1212-2.1973 0.1101-3.3034-4e-3-0.4021-8e-3-0.8016-5e-3-1.195l0.0216-8.9474c-0.3517 5e-4-0.7036 21e-4-1.0554 36e-4-0.824 36e-4-1.6481 73e-4-2.4717-25e-4l-21e-4 1.1715c-1.2934-1.0682-2.5921-1.6047-4.2968-1.474-0.015 11e-4-0.0299 28e-4-0.0448 45e-4zM44.7766 8.083c0.6856-0.0583 1.4038 0.0626 1.9946 0.4265 0.6755 0.4159 1.0947 1.0889 1.2791 1.8503 0.2649 1.0941 0.2464 2.5937-0.3669 3.5664-0.4881 0.7741-1.1913 1.0652-2.0482 1.2444-0.7576 0.0838-1.5384-0.0131-2.1814-0.454-0.7569-0.519-1.1672-1.3709-1.3191-2.2553-0.1839-1.071-0.0581-2.3244 0.5968-3.2207 0.5082-0.6955 1.2133-1.0334 2.0451-1.1576z" />
                <path d="M67.7432 30.9296c-1.1241-0.9282-2.5286-1.2746-3.965-1.2403-1.6797 0.1303-2.6939 0.6326-3.8031 1.8899l-52e-4-1.5974-3.5754 1e-3 13e-4 18.1328 3.6379-32e-4-52e-4-2.6737 52e-4-3.3841c1.3173 1.0968 2.7264 1.6556 4.4607 1.504 1.5269-0.1327 2.8605-0.8262 3.8467-2.0004 1.3791-1.6426 1.7844-3.9254 1.5834-6.0123-0.1665-1.7265-0.8119-3.4846-2.1813-4.6163zM62.805 32.6779c0.7234-0.0768 1.5001 0.0922 2.0941 0.5183 0.8158 0.5847 1.2035 1.545 1.3368 2.5091 0.1731 1.2549 0.0482 2.7277-0.7656 3.7536-0.5569 0.7019-1.2296 0.9953-2.0922 1.1131-0.7533 0.0735-1.5763-0.0996-2.1936-0.5471-0.7033-0.5101-1.0747-1.2868-1.2094-2.128-0.2042-1.2718-0.1685-3.0009 0.6382-4.0691 0.5575-0.7375 1.303-1.0421 2.1917-1.1499z" />
                <path d="M54.3448 36.0763c-0.2971-3.8549-3.6597-6.7412-7.5151-6.4504-3.8643 0.2914-6.7588 3.6636-6.461 7.5277 0.2978 3.8636 3.6747 6.7527 7.5381 6.4482 3.8544-0.3031 6.7352-3.6704 6.438-7.5255zM47.0488 32.5445c0.6697-0.0783 1.4134 0.0902 1.9885 0.4358 0.7865 0.4724 1.2676 1.2732 1.4752 2.1515 0.3009 1.2724 0.2464 2.9306-0.4759 4.0606-0.5232 0.8178-1.2386 1.2061-2.1626 1.3994-0.8409 0.0338-1.5883-0.0326-2.3038-0.5296-0.7989-0.5543-1.2295-1.4605-1.3892-2.3959-0.2152-1.2608-0.1158-2.8013 0.6621-3.8643 0.5545-0.7575 1.3005-1.1176 2.2057-1.2575z" />
                <path d="M14.863 25.134c0.2708-0.0372 0.5634-0.0324 0.8371-0.0413 1.9911-0.0641 4.1265 0.2797 5.6226 1.7057 1.0941 1.0428 1.4162 2.2923 1.4465 3.7592l-3.6046 0.0137c-0.0419-0.7217-0.1496-1.2979-0.7128-1.8125-0.7522-0.6873-1.8795-0.8502-2.8631-0.8009-0.773 0.0388-1.5788 0.2511-2.1008 0.8609-0.3803 0.4441-0.5048 1.0194-0.441 1.5918 0.0615 0.5513 0.3406 0.9906 0.7975 1.3013 0.714 0.4857 1.6284 0.6684 2.4572 0.8543 1.8243 0.4092 4.1028 0.7328 5.566 1.9805 0.8973 0.765 1.3158 1.7785 1.4009 2.9391 0.1039 1.4175-0.2749 2.7472-1.2222 3.8213-1.3176 1.4936-3.281 2.0999-5.211 2.2261-2.1313 0.1477-4.4872-0.2758-6.1539-1.6985-1.2223-1.0428-1.7409-2.3771-1.865-3.9488l3.6718-59e-4c0.1673 0.7794 0.4504 1.4293 1.0941 1.9321 0.8848 0.6916 2.1276 0.8301 3.2133 0.7085 0.8478-0.095 1.7378-0.4255 2.2675-1.1268 0.3299-0.4365 0.4464-0.9764 0.3727-1.5151-0.0761-0.5555-0.3899-1.0064-0.855-1.3121-0.5242-0.3448-1.1709-0.5139-1.7703-0.6733-1.9751-0.525-4.3439-0.6974-5.9898-1.9998-0.8901-0.7042-1.41-1.6638-1.5403-2.7911-0.1605-1.3874 0.1083-2.6887 0.9904-3.7946 1.1046-1.3848 2.8925-1.9764 4.5922-2.1738z" />
                <path d="M64.6454 6.1657c-1.2926-0.843-2.9997-0.992-4.5018-0.9346-1.6257 0.1082-3.5239 0.4814-4.6441 1.7832-0.5993 0.6966-0.8245 1.5339-0.8624 2.4325l3.3584 0.0136c0.3657-0.7334 0.8113-1.248 1.6225-1.5041 0.7351-0.2322 1.6947-0.2329 2.3784 0.1431 0.3955 0.2176 0.7117 0.5898 0.8385 1.026 0.0701 0.2385 0.0909 0.4951 0.1111 0.7447 33e-4 0.0399 65e-4 0.0797 99e-4 0.1193-0.2296 0.2565-0.4332 0.4328-0.7533 0.567-0.7568 0.3175-1.6632 0.377-2.5259 0.4338-0.3002 0.0197-0.595 0.0391-0.8764 0.0688-2.5261 0.2672-4.8792 1.2007-4.6922 4.1875 0.0377 0.6015 0.1945 1.122 0.4522 1.6637 0.6585 1.0508 1.5454 1.7057 2.7613 1.9763 1.4735 0.3279 3.2553 0.1734 4.5486-0.6488 0.4469-0.2843 0.8203-0.6371 1.18-1.0238 0.0736 0.5185 0.1764 1.0174 0.3045 1.5251l3.3815-67e-4c-0.373-1.7847-0.3449-3.6366-0.317-5.4694 75e-4-0.4943 0.0149-0.9872 0.0145-1.4771-2e-4-0.169 12e-4-0.3414 25e-4-0.5161 83e-4-1.0872 0.0173-2.2626-0.3297-3.2691-0.2661-0.7717-0.7832-1.3925-1.4611-1.835zM62.844 12.4998l0.1015 0.0549c0.1457 0.7603-0.0436 1.7655-0.4345 2.4182-0.4287 0.7165-1.1235 1.2573-1.9393 1.4518-0.7475 0.178-1.4091 0.0816-2.057-0.3282-0.2687-0.2427-0.4847-0.4963-0.5985-0.847-0.1308-0.4056-0.1087-0.8935 0.0956-1.2714 0.454-0.8387 2.0809-1.0573 3.4294-1.2385 0.545-0.0732 1.0446-0.1403 1.4028-0.2398z" />
                <path d="M25.5185 24.9854h3.6177l34e-4 6.7094c0.1636-0.2135 0.3281-0.4275 0.5146-0.6217 0.9178-0.9559 2.1732-1.3819 3.4784-1.4054 1.3537-0.0244 2.7683 0.3252 3.754 1.3008 0.6236 0.6171 1.0326 1.429 1.2227 2.2812 0.2707 1.2131 0.1335 2.5948 0.1336 3.8367l19e-4 6.1099-3.6148 13e-4c-0.0297-1.6361-24e-4-3.2781-22e-4-4.9148-25e-4-1.3219 0.3265-3.7498-0.5993-4.7945-0.4226-0.4769-1.02-0.6752-1.6416-0.7082-0.8425-0.0446-1.7836 0.0637-2.4193 0.6711-0.3935 0.376-0.6288 0.888-0.7385 1.4156-0.2214 1.0649-0.0995 2.2944-0.0943 3.3802l32e-4 4.9493-3.6187 13e-4c-0.0391-2.0609-34e-4-4.1296-3e-3-6.1912z" />
                <path d="M76.9631 5.2275c0.2011-0.0155 0.4027-0.0237 0.6044-0.0248 1.2998-77e-4 2.4974 0.3728 3.4323 1.3052 0.6037 0.6096 1.0246 1.3758 1.2158 2.212 0.2928 1.2543 0.1373 2.7121 0.1373 4.0003l78e-4 6.0152h-3.589l45e-4-5.4592c7e-4-0.9869 0.0755-2.0568-0.0572-3.0339-0.0566-0.4166-0.1542-0.8274-0.404-1.1739-0.3559-0.4943-0.9557-0.7913-1.5542-0.8582-0.979-0.1095-1.8345 0.0433-2.6282 0.6412-0.3942 0.4434-0.5731 0.8222-0.6869 1.4052-0.1874 0.9543-0.0813 2.0615-0.08 3.0316l91e-4 5.4468-3.699 8e-4 58e-4-13.2115 3.5624 19e-4c13e-4 0.5777 72e-4 1.1554 0.0169 1.733 0.0878-0.1152 0.1763-0.2292 0.2667-0.342 0.8906-1.1085 2.0583-1.5396 3.4355-1.6898z" />
                <path d="M98.0017 5.229c1.4897-0.0909 2.9793 0.1579 4.2703 0.9376 1.503 0.9088 2.299 2.2373 2.715 3.9097-1.196-0.0143-2.392-0.0152-3.588-27e-4-0.278-0.6557-0.672-1.2227-1.271-1.6252-0.621-0.4175-1.3964-0.592-2.1322-0.4287-0.8476 0.1881-1.5522 0.6993-2.0141 1.433-0.7318 1.1636-0.804 2.8787-0.4735 4.1829 0.2322 0.9189 0.7474 1.7888 1.5912 2.2672 0.6915 0.3922 1.5912 0.4803 2.351 0.2472 0.9916-0.3043 1.5416-1.1072 1.9846-1.9851l0.545-3e-4 2.937-31e-4c-0.249 0.983-0.586 1.874-1.232 2.6691-1.082 1.3303-2.673 2.0379-4.3569 2.2125-1.8586 0.1927-3.7269-0.2373-5.188-1.4366-1.4351-1.178-2.236-2.8968-2.3953-4.731-0.1666-1.9202 0.2342-3.8646 1.4988-5.3642 1.2237-1.4508 2.904-2.1171 4.7581-2.2823z" />
                <path d="M36.0721 5.2941c0.3347-0.0214 0.6684 0.019 1.0018 0.0474l-13e-4 3.3757-0.5368-4e-3c-1.19-26e-4-2.5397 0.0745-3.4206 0.9918-0.4032 0.4198-0.6313 0.9404-0.7549 1.5034-0.2174 0.9914-0.1085 2.1296-0.1042 3.1443l8e-3 4.3821c-1.065 29e-4-2.5329 0.1308-3.5619-0.0292-0.1054-0.1492-0.0752-0.2965-0.0811-0.4757l4e-4-12.7025 3.5715-19e-4c0.0168 0.6127 0.0389 1.2253 0.0664 1.8376 0.14-0.2275 0.289-0.4418 0.4614-0.6463 0.8342-0.9896 2.1173-1.3163 3.3513-1.4228z" />
                <path d="M85.6947 5.5264l3.6814 28e-4-33e-4 8.7494c0 1.4762 0.0826 2.9873-0.0162 4.4579l-3.673 13e-4c0.0592-1.7144 0.026-3.4381 0.026-5.1539z" />
                <path d="M85.6025 0.39l4.0802-3e-3c-91e-4 1.0185-78e-4 2.0371 33e-4 3.0556l-4.0835 15e-4z" />
            </g>
            <defs>
                <clipPath id="clip0_8208_3134">
                    <rect fill="#fff" width="112" height="48" />
                </clipPath>
            </defs>
        </symbol>
        <symbol id="close" viewBox="0 0 24 24" fill="none">
            <path fill="var(--color0, #fff)" d="M16.192 6.3442l-4.243 4.242-4.242-4.242-1.414 1.414 4.242 4.242-4.242 4.242 1.414 1.414 4.242-4.242 4.243 4.242 1.414-1.414-4.242-4.242 4.242-4.242z" />
        </symbol>
        <symbol id="Youtube" viewBox="0 0 24 24" fill="none">
            <path fill="var(--color0, #fff)" d="M21.5933 7.203c-0.1139-0.4226-0.3365-0.808-0.6456-1.1178-0.3091-0.3099-0.694-0.5333-1.1164-0.6482C18.2653 5.007 12.0003 5 12.0003 5s-6.264-7e-3-7.831 0.404c-0.422 0.1201-0.8061 0.3468-1.1154 0.6581-0.3093 0.3114-0.5333 0.697-0.6506 1.1199-0.413 1.566-0.417 4.814-0.417 4.814s-4e-3 3.264 0.406 4.814c0.23 0.857 0.905 1.534 1.763 1.765 1.582 0.43 7.83 0.437 7.83 0.437s6.265 7e-3 7.831-0.403c0.4225-0.1147 0.8078-0.3376 1.1177-0.6468s0.5337-0.694 0.6493-1.1162c0.414-1.565 0.417-4.812 0.417-4.812s0.02-3.265-0.407-4.831zM9.9963 15.005l5e-3-6 5.207 3.005z" />
        </symbol>
        <symbol id="star" viewBox="0 0 24 24">
             <path d="M12 17.27L18.18 21l-1.64-7.03L22 9.24l-7.19-.61L12 2 9.19 8.63 2 9.24l5.46 4.73L5.82 21z" />
        </symbol>
        <symbol id="restaurant" viewBox="0 0 24 24" fill="none">
            <path fill="var(--color0, #fff)" d="M12 10h-2V3H8v7H6V3H4v8c0 1.654 1.346 3 3 3h1v7h2v-7h1c1.654 0 3-1.346 3-3V3h-2zM19 3h-1c-1.159 0-2 1.262-2 3v8h2v7h2V4c0-0.2652-0.1054-0.5196-0.2929-0.7071C19.5196 3.1054 19.2652 3 19 3z" />
        </symbol>
        <symbol id="menu" viewBox="0 0 24 24" fill="none">
            <path fill="var(--color0, #fff)" d="M4 6h16v2H4zM4 11h16v2H4zM4 16h16v2H4z" />
        </symbol>
        <symbol id="LinkedIn" viewBox="0 0 24 24" fill="none">
            <path fill="var(--color0, #fff)" d="M19.3125 3H4.6875C3.7594 3 3 3.7594 3 4.6875v14.625C3 20.2406 3.7594 21 4.6875 21h14.625C20.2406 21 21 20.2406 21 19.3125V4.6875C21 3.7594 20.2406 3 19.3125 3zM9.75 17.625H7.5V9.75h2.25zM8.625 8.625C8.0029 8.625 7.5 8.1221 7.5 7.5c0-0.6221 0.5029-1.125 1.125-1.125S9.75 6.8779 9.75 7.5c0 0.6221-0.5029 1.125-1.125 1.125zM17.625 17.625h-2.25v-4.5c0-0.6221-0.5029-1.125-1.125-1.125s-1.125 0.5029-1.125 1.125v4.5h-2.25V9.75h2.25v1.3956c0.4641-0.6362 1.1739-1.3956 1.9688-1.3956 1.3994 0 2.5312 1.2589 2.5312 2.8125z" />
        </symbol>
        <symbol id="Instagram" viewBox="0 0 24 24" fill="var(--color0, #fff)">
            <path d="M11.9988 4.6209c2.4044 0 2.689 0.0107 3.6344 0.0529 0.8791 0.0388 1.3532 0.1861 1.6698 0.3093 0.4185 0.162 0.7205 0.3588 1.0332 0.6715 0.3166 0.3166 0.5096 0.6152 0.6749 1.0337 0.1232 0.3166 0.2705 0.7941 0.3093 1.6698 0.0422 0.9494 0.0529 1.234 0.0529 3.635 0 2.401-0.0107 2.6889-0.0529 3.6349-0.0388 0.8791-0.1861 1.3532-0.3093 1.6699-0.162 0.4184-0.3583 0.7204-0.6715 1.0331-0.3167 0.3167-0.6153 0.5096-1.0332 0.675-0.3166 0.1231-0.7947 0.2705-1.6698 0.3093-0.9494 0.0422-1.234 0.0529-3.635 0.0529-2.401 0-2.6889-0.0107-3.6349-0.0529-0.8791-0.0388-1.3532-0.1862-1.6699-0.3093-0.4184-0.162-0.7205-0.3583-1.0337-0.6716-0.3167-0.3166-0.5096-0.6153-0.6749-1.0332-0.1232-0.3166-0.2706-0.7947-0.3094-1.6698-0.0421-0.9494-0.0528-1.234-0.0528-3.635 0-2.4009 0.0107-2.6889 0.0528-3.6349 0.0389-0.8791 0.1862-1.3532 0.3094-1.6698 0.162-0.4185 0.3588-0.7205 0.6715-1.0338 0.3167-0.3166 0.6153-0.5095 1.0337-0.6749 0.3167-0.1232 0.7942-0.2705 1.6699-0.3093 0.9454-0.0422 1.2306-0.0529 3.6349-0.0529zM11.9988 3.0006c-2.4432 0-2.7486 0.0107-3.7086 0.0528-0.9561 0.0422-1.6136 0.1969-2.1828 0.4185-0.5939 0.2317-1.0967 0.5376-1.5956 1.0405C4.009 5.0118 3.703 5.514 3.4713 6.1046 3.2497 6.6777 3.0951 7.3312 3.0529 8.2874 3.0107 9.2508 3 9.5562 3 11.9994c0 2.4431 0.0107 2.7485 0.0529 3.7086 0.0421 0.9561 0.1968 1.6136 0.4184 2.1828 0.2323 0.5939 0.5377 1.0967 1.0405 1.5956 0.4989 0.4988 1.0017 0.8087 1.5922 1.0371 0.5731 0.2216 1.2267 0.3762 2.1828 0.4184 0.9595 0.0422 1.2654 0.0529 3.7086 0.0529 2.4432 0 2.7492-0.0107 3.7087-0.0529 0.9561-0.0422 1.6136-0.1968 2.1827-0.4184 0.5906-0.2284 1.0934-0.5377 1.5923-1.0371 0.4988-0.4995 0.8087-1.0017 1.0371-1.5923 0.2216-0.5731 0.3762-1.2266 0.4184-2.1827 0.0422-0.9595 0.0529-1.2655 0.0529-3.7087 0-2.4431-0.0107-2.7485-0.0529-3.7086-0.0422-0.9561-0.1968-1.6136-0.4184-2.1828-0.2216-0.5978-0.5276-1.1001-1.0298-1.5995-0.4989-0.4989-1.0017-0.8088-1.5923-1.0371-0.5731-0.2216-1.2266-0.3763-2.1827-0.4185C14.7485 3.0107 14.4425 3 11.9994 3z" />
            <path d="M11.9985 7.377C9.4468 7.377 7.376 9.4472 7.376 11.9995c0 2.5523 2.0703 4.6226 4.6225 4.6226 2.5523 0 4.6226-2.0703 4.6226-4.6226 0-2.5517-2.0703-4.6226-4.6226-4.6226zM11.9985 14.9978c-1.6557 0-2.9982-1.3425-2.9982-2.9983s1.3425-2.9983 2.9982-2.9983c1.6558 0 2.9983 1.3425 2.9983 2.9983s-1.3425 2.9983-2.9983 2.9983z" />
            <path d="M17.8822 7.194c0 0.5962-0.4831 1.0793-1.0793 1.0793-0.5961 0-1.0793-0.4831-1.0793-1.0793s0.4832-1.0792 1.0793-1.0792c0.5962-1e-4 1.0793 0.4831 1.0793 1.0792z" />
        </symbol>
        <symbol id="health" viewBox="0 0 24 24" fill="none">
            <path fill="var(--color0, #fff)" d="M19.6486 5.2859l-5.649 3.262v-6.523h-4l0 6.523-5.649-3.262-2 3.465 5.648 3.261-5.648 3.261 2 3.465 5.649-3.261 0 6.523h4v-6.523l5.649 3.261 2-3.465-5.648-3.261 5.648-3.261z" />
        </symbol>
        <symbol id="Google" viewBox="0 0 24 24" fill="none">
            <path fill="var(--color0, #fff)" d="M21 11.7898c0 4.15-2.21 9.21-8.87 9.21-5.0054 0.0332-9.0915-3.9947-9.13-9 0.0385-5.0054 4.1246-9.0333 9.13-9.0001 2.0707 77e-4 4.0785 0.7122 5.7 2 0.112 0.0915 0.1809 0.2256 0.19 0.37 6e-4 0.1461-0.057 0.2864-0.16 0.39-0.651 0.5952-1.2718 1.2227-1.86 1.88-0.1711 0.1883-0.4578 0.2144-0.66 0.06-0.9239-0.6837-2.0512-1.036-3.2-1-2.9547 0-5.35 2.3953-5.35 5.3501 0 2.9547 2.3953 5.35 5.35 5.35 3 0 4.27-1.28 4.93-3.55H12.5c-0.2761 0-0.5-0.2239-0.5-0.5v-2.65c0-0.2762 0.2239-0.5 0.5-0.5h8c0.2302-15e-4 0.4244 0.1711 0.45 0.4 0.0371 0.3955 0.0538 0.7927 0.05 1.19z" />
        </symbol>
        <symbol id="Facebook" viewBox="0 0 24 24" fill="none">
            <path fill="var(--color0, #fff)" d="M22 12.3038c0-5.5566-4.4771-10.0611-10-10.0611-5.5228 0-10 4.5045-10 10.0611 0 5.0217 3.6568 9.1841 8.4375 9.9389v-7.0306H7.8984l0-2.9083h2.5391v-2.2166c0-2.5216 1.493-3.9144 3.7771-3.9144 1.0942 0 2.2385 0.1965 2.2385 0.1965v2.476l-1.2609 0c-1.2422 0-1.6297 0.7756-1.6297 1.5713v1.8872h2.7734l-0.4433 2.9083h-2.3301v7.0306C18.3432 21.4879 22 17.3257 22 12.3038z" />
        </symbol>
        <symbol id="chevron-up" viewBox="0 0 24 24" fill="none">
            <path fill="var(--color0, #fff)" d="M6.293 14.2929l1.414 1.414 4.293-4.293 4.293 4.293 1.414-1.414L12 8.5859z" />
        </symbol>
        <symbol id="chevron-right" viewBox="0 0 24 24" fill="none">
            <path fill="var(--color0, #fff)" d="M9.707 16.9496l5.707-5.707-5.707-5.707-1.414 1.414 4.293 4.293-4.293 4.293z" />
        </symbol>
        <symbol id="chevron-left" viewBox="0 0 24 24" fill="none">
            <path fill="var(--color0, #fff)" d="M13.2929 6.293 7.5859 12l5.707 5.707 1.414-1.414L10.4139 12l4.293-4.293z" />
        </symbol>
        <symbol id="chevron-down" viewBox="0 0 24 24" fill="none">
            <path fill="var(--color0, #fff)" d="M16.293 8.293 12 12.586 7.707 8.293 6.293 9.707 12 15.414l5.707-5.707z" />
        </symbol>
        <symbol id="cheese" viewBox="0 0 24 24" fill="var(--color0, #fff)">
            <path d="M15.1596 2.0003c-0.2284-0.0342-0.4616 0.0117-0.66 0.13l-12 7c-0.0474 0.0276-0.0911 0.0612-0.13 0.1l-0.1 0.08c-0.068 0.0787-0.1251 0.1661-0.17 0.26-0.0711 0.1318-0.1056 0.2803-0.1 0.43l0 10c0 0.2652 0.1054 0.5195 0.2929 0.7071 0.1875 0.1875 0.4419 0.2929 0.7071 0.2929h18c0.2652 0 0.5196-0.1054 0.7071-0.2929 0.1876-0.1876 0.2929-0.4419 0.2929-0.7071v-10c38e-4-1.9308-0.684-3.7991-1.9387-5.2665-1.2547-1.4675-2.9934-2.4372-4.9013-2.7335zM15.1596 4.0503c1.2023 0.2462 2.3017 0.851 3.1533 1.7347 0.8515 0.8837 1.4152 2.0047 1.6167 3.2153l-13.23 0zM19.9996 19.0003h-16l0-8h16z" />
            <path d="M6.4996 18.0002c0.8285 0 1.5-0.6715 1.5-1.5 0-0.8284-0.6715-1.5-1.5-1.5-0.8284 0-1.5 0.6716-1.5 1.5 0 0.8285 0.6716 1.5 1.5 1.5z" />
            <path d="M11.4996 15.0002c0.8285 0 1.5-0.6715 1.5-1.5 0-0.8284-0.6715-1.5-1.5-1.5-0.8284 0-1.5 0.6716-1.5 1.5 0 0.8285 0.6716 1.5 1.5 1.5z" />
            <path d="M16.9996 18.0002c1.1046 0 2-0.8954 2-2 0-1.1045-0.8954-2-2-2-1.1045 0-2 0.8955-2 2 0 1.1046 0.8955 2 2 2z" />
        </symbol>
        <symbol id="basketball" viewBox="0 0 24 24" fill="none">
            <path fill="var(--color0, #fff)" d="M4.9291 19.0712c1.895 1.895 4.405 2.938 7.071 2.938 2.666 0 5.177-1.043 7.071-2.938 3.899-3.899 3.899-10.243 0-14.143-1.894-1.894-4.406-2.938-7.071-2.938-2.665 0-5.177 1.044-7.071 2.939-3.899 3.898-3.899 10.243 0 14.142zM12.3091 4.0062c1.6702 0.0602 3.2783 0.6476 4.594 1.678l-4.903 4.902-1.46-1.46c1.161-1.479 1.792-3.308 1.769-5.12zM9.1101 7.6962l-2.012-2.012c0.9446-0.7404 2.0449-1.2567 3.218-1.51-0.015 1.236-0.445 2.477-1.206 3.522zM7.6861 9.1002c-1.0186 0.696-2.2253 1.0647-3.459 1.057 0.2599-1.1125 0.7572-2.1557 1.458-3.058zM4.0111 12.1462c0.077 2e-3 0.154 0.014 0.231 0.014 1.7597 56e-4 3.4728-0.5655 4.877-1.626l1.467 1.466-4.901 4.901c-1.0576-1.3622-1.645-3.0306-1.674-4.755zM16.3051 14.8912c1.042-0.758 2.28-1.188 3.508-1.206-0.2501 1.1715-0.7619 2.2712-1.497 3.217zM16.9021 18.3162c-0.9017 0.7049-1.9452 1.2064-3.059 1.47-0.0113-1.2382 0.3577-2.4501 1.057-3.472zM11.8581 20.0022c-1.7284-0.0275-3.4004-0.6196-4.761-1.686l4.903-4.902 1.463 1.463c-1.103 1.444-1.659 3.266-1.605 5.125zM19.9821 11.6922c-1.807-0.018-3.633 0.61-5.108 1.768l-1.46-1.46 4.901-4.901c1.023 1.3187 1.6061 2.9252 1.667 4.593z" />
        </symbol>
        <symbol id="X" viewBox="0 0 24 24" fill="none">
            <path fill="var(--color0, #fff)" d="M17.1761 4.2427l2.7601 0-6.0301 6.7774L21 20.2427h-5.5544l-4.3505-5.5934-4.9779 5.5934H3.3554l6.4498-7.2492L3 4.2427l5.6954 0 3.9325 5.1126zM16.2073 18.6181h1.5295L7.8644 5.782l-1.6412 0z" />
        </symbol>
        <symbol id="icon-phone" viewBox="0 0 32 32">
            <path d="M23.609 16.391c-0.124-0.124-0.271-0.222-0.432-0.289s-0.335-0.102-0.51-0.102c-0.175 0-0.349 0.035-0.51 0.102s-0.309 0.165-0.432 0.289l-2.125 2.125c-0.985-0.293-2.824-0.96-3.989-2.125s-1.832-3.004-2.125-3.989l2.125-2.125c0.124-0.124 0.222-0.271 0.289-0.432s0.102-0.335 0.102-0.51c0-0.175-0.035-0.348-0.102-0.51s-0.165-0.309-0.289-0.432l-5.333-5.333c-0.124-0.124-0.271-0.222-0.432-0.289s-0.335-0.102-0.51-0.102c-0.175 0-0.348 0.035-0.51 0.102s-0.309 0.165-0.432 0.289l-3.616 3.616c-0.507 0.507-0.792 1.203-0.781 1.913 0.031 1.899 0.533 8.493 5.731 13.691s11.792 5.699 13.692 5.731h0.037c0.704 0 1.369-0.277 1.873-0.781l3.616-3.616c0.124-0.124 0.222-0.271 0.289-0.432s0.102-0.335 0.102-0.51c0-0.175-0.035-0.349-0.102-0.51s-0.165-0.309-0.289-0.432l-5.333-5.335zM23.44 25.34c-1.664-0.028-7.357-0.475-11.831-4.949-4.488-4.488-4.923-10.201-4.949-11.832l2.673-2.673 3.448 3.448-1.724 1.724c-0.157 0.157-0.272 0.35-0.335 0.562s-0.073 0.437-0.027 0.654c0.032 0.153 0.815 3.789 3.028 6.003s5.849 2.996 6.003 3.028c0.217 0.047 0.442 0.038 0.654-0.025s0.406-0.179 0.562-0.336l1.725-1.724 3.448 3.448-2.675 2.673z"></path>
        </symbol>
        <symbol id="icon-envelope" viewBox="0 0 32 32">
            <path d="M26.667 5.333h-21.333c-1.471 0-2.667 1.196-2.667 2.667v16c0 1.471 1.196 2.667 2.667 2.667h21.333c1.471 0 2.667-1.196 2.667-2.667v-16c0-1.471-1.196-2.667-2.667-2.667zM26.667 8v0.681l-10.667 8.297-10.667-8.296v-0.683h21.333zM5.333 24v-11.941l9.848 7.66c0.233 0.183 0.522 0.283 0.819 0.283s0.585-0.1 0.819-0.283l9.848-7.66 0.003 11.941h-21.336z"></path>
        </symbol>
        <symbol id="icon-Arrow-close" viewBox="0 0 54 32">
<path stroke-linejoin="miter" stroke-linecap="butt" stroke-miterlimit="4" stroke-width="3.2" d="M49.641 1.834c0.312-0.312 0.819-0.312 1.131 0l1.131 1.131c0.313 0.312 0.312 0.819 0 1.131l-24.469 24.469c-0.312 0.312-0.819 0.312-1.131 0l-24.469-24.469c-0.312-0.312-0.312-0.819 0-1.131l1.131-1.131c0.312-0.312 0.819-0.312 1.131 0l22.772 22.772 22.772-22.772z"></path>
        </symbol>
        <symbol id="icon-Arrow-open" viewBox="0 0 54 32">
<path stroke-linejoin="miter" stroke-linecap="butt" stroke-miterlimit="4" stroke-width="3.2" d="M4.097 28.566c-0.312 0.312-0.819 0.312-1.131 0l-1.131-1.131c-0.312-0.312-0.312-0.819 0-1.131l24.469-24.469c0.312-0.312 0.819-0.312 1.131 0l24.469 24.469c0.312 0.312 0.313 0.819 0 1.131l-1.131 1.131c-0.312 0.312-0.819 0.312-1.131 0l-22.772-22.772-22.772 22.772z"></path>
        </symbol>
    </defs>
</svg>
